<svg width="46" height="38" viewBox="0 0 46 38" fill="none" xmlns="http://www.w3.org/2000/svg">
<path fill-rule="evenodd" clip-rule="evenodd" d="M0.5 3C0.5 2.33696 0.763392 1.70107 1.23223 1.23223C1.70107 0.763392 2.33696 0.5 3 0.5H43C43.663 0.5 44.2989 0.763392 44.7678 1.23223C45.2366 1.70107 45.5 2.33696 45.5 3V23C45.5 23.663 45.2366 24.2989 44.7678 24.7678C44.2989 25.2366 43.663 25.5 43 25.5H3C2.33696 25.5 1.70107 25.2366 1.23223 24.7678C0.763392 24.2989 0.5 23.663 0.5 23V3ZM30.5 13C30.5 14.9891 29.7098 16.8968 28.3033 18.3033C26.8968 19.7098 24.9891 20.5 23 20.5C21.0109 20.5 19.1032 19.7098 17.6967 18.3033C16.2902 16.8968 15.5 14.9891 15.5 13C15.5 11.0109 16.2902 9.10322 17.6967 7.6967C19.1032 6.29018 21.0109 5.5 23 5.5C24.9891 5.5 26.8968 6.29018 28.3033 7.6967C29.7098 9.10322 30.5 11.0109 30.5 13ZM8 15.5C8.66304 15.5 9.29893 15.2366 9.76777 14.7678C10.2366 14.2989 10.5 13.663 10.5 13C10.5 12.337 10.2366 11.7011 9.76777 11.2322C9.29893 10.7634 8.66304 10.5 8 10.5C7.33696 10.5 6.70107 10.7634 6.23223 11.2322C5.76339 11.7011 5.5 12.337 5.5 13C5.5 13.663 5.76339 14.2989 6.23223 14.7678C6.70107 15.2366 7.33696 15.5 8 15.5ZM40.5 13C40.5 13.663 40.2366 14.2989 39.7678 14.7678C39.2989 15.2366 38.663 15.5 38 15.5C37.337 15.5 36.7011 15.2366 36.2322 14.7678C35.7634 14.2989 35.5 13.663 35.5 13C35.5 12.337 35.7634 11.7011 36.2322 11.2322C36.7011 10.7634 37.337 10.5 38 10.5C38.663 10.5 39.2989 10.7634 39.7678 11.2322C40.2366 11.7011 40.5 12.337 40.5 13ZM2.375 29.25C1.87772 29.25 1.40081 29.4475 1.04917 29.7992C0.697544 30.1508 0.5 30.6277 0.5 31.125C0.5 31.6223 0.697544 32.0992 1.04917 32.4508C1.40081 32.8025 1.87772 33 2.375 33C13.4175 33 24.1075 34.5075 34.2475 37.325C37.025 38.0975 39.875 36.045 39.875 33.085V31.125C39.875 30.6277 39.6775 30.1508 39.3258 29.7992C38.9742 29.4475 38.4973 29.25 38 29.25C37.5027 29.25 37.0258 29.4475 36.6742 29.7992C36.3225 30.1508 36.125 30.6277 36.125 31.125V33.085C36.121 33.1887 36.0933 33.2901 36.044 33.3815C35.9947 33.4729 35.9252 33.5517 35.8408 33.6121C35.7563 33.6724 35.6591 33.7126 35.5567 33.7296C35.4543 33.7465 35.3494 33.7398 35.25 33.71C24.5446 30.7395 13.4849 29.239 2.375 29.25Z" fill="white"/>
</svg>
