<svg width="50" height="50" viewBox="0 0 50 50" fill="none" xmlns="http://www.w3.org/2000/svg">
<path fill-rule="evenodd" clip-rule="evenodd" d="M3.125 25C3.125 19.1984 5.42968 13.6344 9.53204 9.53204C13.6344 5.42968 19.1984 3.125 25 3.125C30.8016 3.125 36.3656 5.42968 40.468 9.53204C44.5703 13.6344 46.875 19.1984 46.875 25C46.875 30.8016 44.5703 36.3656 40.468 40.468C36.3656 44.5703 30.8016 46.875 25 46.875C19.1984 46.875 13.6344 44.5703 9.53204 40.468C5.42968 36.3656 3.125 30.8016 3.125 25ZM27.3438 11.7188C27.3438 11.0971 27.0968 10.501 26.6573 10.0615C26.2177 9.62193 25.6216 9.375 25 9.375C24.3784 9.375 23.7823 9.62193 23.3427 10.0615C22.9032 10.501 22.6563 11.0971 22.6562 11.7188V25C22.6562 26.2938 23.7062 27.3438 25 27.3438H35.1562C35.7779 27.3438 36.374 27.0968 36.8135 26.6573C37.2531 26.2177 37.5 25.6216 37.5 25C37.5 24.3784 37.2531 23.7823 36.8135 23.3427C36.374 22.9032 35.7779 22.6563 35.1562 22.6562H27.3438V11.7188Z" fill="white"/>
</svg>
