<svg width="50" height="50" viewBox="0 0 50 50" fill="none" xmlns="http://www.w3.org/2000/svg">
<path fill-rule="evenodd" clip-rule="evenodd" d="M2.5 10C2.5 9.33696 2.76339 8.70107 3.23223 8.23223C3.70107 7.76339 4.33696 7.5 5 7.5H45C45.663 7.5 46.2989 7.76339 46.7678 8.23223C47.2366 8.70107 47.5 9.33696 47.5 10V30C47.5 30.663 47.2366 31.2989 46.7678 31.7678C46.2989 32.2366 45.663 32.5 45 32.5H5C4.33696 32.5 3.70107 32.2366 3.23223 31.7678C2.76339 31.2989 2.5 30.663 2.5 30V10ZM32.5 20C32.5 21.9891 31.7098 23.8968 30.3033 25.3033C28.8968 26.7098 26.9891 27.5 25 27.5C23.0109 27.5 21.1032 26.7098 19.6967 25.3033C18.2902 23.8968 17.5 21.9891 17.5 20C17.5 18.0109 18.2902 16.1032 19.6967 14.6967C21.1032 13.2902 23.0109 12.5 25 12.5C26.9891 12.5 28.8968 13.2902 30.3033 14.6967C31.7098 16.1032 32.5 18.0109 32.5 20ZM10 22.5C10.663 22.5 11.2989 22.2366 11.7678 21.7678C12.2366 21.2989 12.5 20.663 12.5 20C12.5 19.337 12.2366 18.7011 11.7678 18.2322C11.2989 17.7634 10.663 17.5 10 17.5C9.33696 17.5 8.70107 17.7634 8.23223 18.2322C7.76339 18.7011 7.5 19.337 7.5 20C7.5 20.663 7.76339 21.2989 8.23223 21.7678C8.70107 22.2366 9.33696 22.5 10 22.5ZM42.5 20C42.5 20.663 42.2366 21.2989 41.7678 21.7678C41.2989 22.2366 40.663 22.5 40 22.5C39.337 22.5 38.7011 22.2366 38.2322 21.7678C37.7634 21.2989 37.5 20.663 37.5 20C37.5 19.337 37.7634 18.7011 38.2322 18.2322C38.7011 17.7634 39.337 17.5 40 17.5C40.663 17.5 41.2989 17.7634 41.7678 18.2322C42.2366 18.7011 42.5 19.337 42.5 20ZM4.375 36.25C3.87772 36.25 3.40081 36.4475 3.04917 36.7992C2.69754 37.1508 2.5 37.6277 2.5 38.125C2.5 38.6223 2.69754 39.0992 3.04917 39.4508C3.40081 39.8025 3.87772 40 4.375 40C15.4175 40 26.1075 41.5075 36.2475 44.325C39.025 45.0975 41.875 43.045 41.875 40.085V38.125C41.875 37.6277 41.6775 37.1508 41.3258 36.7992C40.9742 36.4475 40.4973 36.25 40 36.25C39.5027 36.25 39.0258 36.4475 38.6742 36.7992C38.3225 37.1508 38.125 37.6277 38.125 38.125V40.085C38.121 40.1887 38.0933 40.2901 38.044 40.3815C37.9947 40.4729 37.9252 40.5517 37.8408 40.6121C37.7563 40.6724 37.6591 40.7126 37.5567 40.7296C37.4543 40.7465 37.3494 40.7398 37.25 40.71C26.5446 37.7395 15.4849 36.239 4.375 36.25Z" fill="white"/>
</svg>
