<svg width="51" height="50" viewBox="0 0 51 50" fill="none" xmlns="http://www.w3.org/2000/svg">
<path d="M25.6673 4.16675C14.1882 4.16675 4.83398 13.5209 4.83398 25.0001C4.83398 36.4793 14.1882 45.8334 25.6673 45.8334C37.1465 45.8334 46.5007 36.4793 46.5007 25.0001C46.5007 13.5209 37.1465 4.16675 25.6673 4.16675ZM35.6257 20.2084L23.8132 32.0209C23.5215 32.3126 23.1257 32.4793 22.709 32.4793C22.2923 32.4793 21.8965 32.3126 21.6048 32.0209L15.709 26.1251C15.1048 25.5209 15.1048 24.5209 15.709 23.9167C16.3132 23.3126 17.3132 23.3126 17.9173 23.9167L22.709 28.7084L33.4173 18.0001C34.0215 17.3959 35.0215 17.3959 35.6257 18.0001C36.2298 18.6042 36.2298 19.5834 35.6257 20.2084Z" fill="white"/>
</svg>
