<svg width="51" height="50" viewBox="0 0 51 50" fill="none" xmlns="http://www.w3.org/2000/svg">
<path d="M25.3333 4.16675C13.8542 4.16675 4.5 13.5209 4.5 25.0001C4.5 36.4793 13.8542 45.8334 25.3333 45.8334C36.8125 45.8334 46.1667 36.4793 46.1667 25.0001C46.1667 13.5209 36.8125 4.16675 25.3333 4.16675ZM32.3333 29.7917C32.9375 30.3959 32.9375 31.3959 32.3333 32.0001C32.0208 32.3126 31.625 32.4584 31.2292 32.4584C30.8333 32.4584 30.4375 32.3126 30.125 32.0001L25.3333 27.2084L20.5417 32.0001C20.2292 32.3126 19.8333 32.4584 19.4375 32.4584C19.0417 32.4584 18.6458 32.3126 18.3333 32.0001C17.7292 31.3959 17.7292 30.3959 18.3333 29.7917L23.125 25.0001L18.3333 20.2084C17.7292 19.6042 17.7292 18.6042 18.3333 18.0001C18.9375 17.3959 19.9375 17.3959 20.5417 18.0001L25.3333 22.7917L30.125 18.0001C30.7292 17.3959 31.7292 17.3959 32.3333 18.0001C32.9375 18.6042 32.9375 19.6042 32.3333 20.2084L27.5417 25.0001L32.3333 29.7917Z" fill="white"/>
</svg>
